<mxfile host="app.diagrams.net" modified="2023-10-17T04:59:29.519Z" agent="Mozilla/5.0 (Windows NT 10.0; Win64; x64; rv:109.0) Gecko/20100101 Firefox/118.0" etag="pL_-KC9LalzUlqptH9rS" version="22.0.4" type="github">
  <diagram name="Page-1" id="lw2mA_hzzs9lhL4AsNFx">
    <mxGraphModel dx="880" dy="470" grid="1" gridSize="10" guides="1" tooltips="1" connect="1" arrows="1" fold="1" page="1" pageScale="1" pageWidth="850" pageHeight="1100" math="0" shadow="0">
      <root>
        <mxCell id="0" />
        <mxCell id="1" parent="0" />
        <mxCell id="16sdWiToy-ReXfGUuioF-10" value="" style="edgeStyle=orthogonalEdgeStyle;rounded=0;orthogonalLoop=1;jettySize=auto;html=1;" edge="1" parent="1" source="16sdWiToy-ReXfGUuioF-1" target="16sdWiToy-ReXfGUuioF-2">
          <mxGeometry relative="1" as="geometry" />
        </mxCell>
        <mxCell id="16sdWiToy-ReXfGUuioF-1" value="Start" style="strokeWidth=2;html=1;shape=mxgraph.flowchart.terminator;whiteSpace=wrap;" vertex="1" parent="1">
          <mxGeometry x="380" y="30" width="120" height="70" as="geometry" />
        </mxCell>
        <mxCell id="16sdWiToy-ReXfGUuioF-5" value="" style="edgeStyle=orthogonalEdgeStyle;rounded=0;orthogonalLoop=1;jettySize=auto;html=1;" edge="1" parent="1" source="16sdWiToy-ReXfGUuioF-2" target="16sdWiToy-ReXfGUuioF-3">
          <mxGeometry relative="1" as="geometry" />
        </mxCell>
        <mxCell id="16sdWiToy-ReXfGUuioF-2" value="&lt;div&gt;Luas segitiga&lt;/div&gt;&lt;div&gt;a&lt;/div&gt;&lt;div&gt;t&lt;br&gt;&lt;/div&gt;" style="shape=parallelogram;html=1;strokeWidth=2;perimeter=parallelogramPerimeter;whiteSpace=wrap;rounded=1;arcSize=12;size=0.23;" vertex="1" parent="1">
          <mxGeometry x="370" y="170" width="140" height="70" as="geometry" />
        </mxCell>
        <mxCell id="16sdWiToy-ReXfGUuioF-6" value="" style="edgeStyle=orthogonalEdgeStyle;rounded=0;orthogonalLoop=1;jettySize=auto;html=1;" edge="1" parent="1" source="16sdWiToy-ReXfGUuioF-3" target="16sdWiToy-ReXfGUuioF-4">
          <mxGeometry relative="1" as="geometry" />
        </mxCell>
        <mxCell id="16sdWiToy-ReXfGUuioF-3" value="&lt;div&gt;Luas segitiga=&lt;/div&gt;&lt;div&gt;1/2 x a x t&lt;br&gt;&lt;/div&gt;" style="rounded=1;whiteSpace=wrap;html=1;absoluteArcSize=1;arcSize=14;strokeWidth=2;" vertex="1" parent="1">
          <mxGeometry x="190" y="160" width="90" height="90" as="geometry" />
        </mxCell>
        <mxCell id="16sdWiToy-ReXfGUuioF-9" value="" style="edgeStyle=orthogonalEdgeStyle;rounded=0;orthogonalLoop=1;jettySize=auto;html=1;" edge="1" parent="1" source="16sdWiToy-ReXfGUuioF-4" target="16sdWiToy-ReXfGUuioF-7">
          <mxGeometry relative="1" as="geometry" />
        </mxCell>
        <mxCell id="16sdWiToy-ReXfGUuioF-4" value="Luas segitiga" style="shape=parallelogram;html=1;strokeWidth=2;perimeter=parallelogramPerimeter;whiteSpace=wrap;rounded=1;arcSize=12;size=0.23;" vertex="1" parent="1">
          <mxGeometry x="175" y="330" width="120" height="60" as="geometry" />
        </mxCell>
        <mxCell id="16sdWiToy-ReXfGUuioF-7" value="End" style="strokeWidth=2;html=1;shape=mxgraph.flowchart.terminator;whiteSpace=wrap;" vertex="1" parent="1">
          <mxGeometry x="390" y="320" width="120" height="80" as="geometry" />
        </mxCell>
      </root>
    </mxGraphModel>
  </diagram>
</mxfile>
